<?xml version="1.0"?>
<svg id="Livello_2" data-name="Livello 2" xmlns="http://www.w3.org/2000/svg" viewBox="0 0 883.77 519.62">
  <g id="Livello_1-2" data-name="Livello 1">
    <g>
      <path d="M88.28,103v80.92c0,4.07,3.31,7.36,7.36,7.36h44.14v44.14h-44.14c-28.44,0-51.5-23.06-51.5-51.5v-80.92H0v-44.14h44.14V0h44.14v58.86h51.5v44.14h-51.5Z"></path>
      <path d="M216.95,150.83c0,24.38,19.76,44.14,44.14,44.14s44.14-19.76,44.14-44.14V58.87h44.14v91.96c0,48.76-39.52,88.28-88.28,88.28s-88.28-39.52-88.28-88.28V58.87h44.14v91.96Z"></path>
      <path d="M463.1,103v80.92c0,4.07,3.31,7.36,7.36,7.36h44.14v44.14h-44.14c-28.44,0-51.5-23.06-51.5-51.5v-80.92h-44.14v-44.14h44.14V0h44.14v58.86h51.5v44.14h-51.5Z"></path>
      <path d="M626.18,103v80.92c0,4.07,3.31,7.36,7.36,7.36h44.14v44.14h-44.14c-28.44,0-51.5-23.06-51.5-51.5v-80.92h-44.14v-44.14h44.14V0h44.14v58.86h51.5v44.14h-51.5Z"></path>
      <path d="M883.77,147.14c0,50.79-41.16,91.96-91.96,91.96s-91.96-41.17-91.96-91.96,41.16-91.96,91.96-91.96,91.96,41.17,91.96,91.96ZM839.62,147.14c0-26.41-21.41-47.82-47.82-47.82s-47.82,21.41-47.82,47.82,21.41,47.82,47.82,47.82,47.82-21.41,47.82-47.82Z"></path>
      <path d="M88.28,383.52v80.92c0,4.07,3.31,7.36,7.36,7.36h44.14v44.14h-44.14c-28.44,0-51.5-23.06-51.5-51.5v-80.92H0v-44.14h44.14v-58.86h44.14v58.86h51.5v44.14h-51.5Z"></path>
      <path d="M336.32,427.66c0,50.79-41.16,91.96-91.96,91.96s-91.96-41.17-91.96-91.96,41.16-91.96,91.96-91.96,91.96,41.17,91.96,91.96ZM292.18,427.66c0-26.41-21.41-47.82-47.82-47.82s-47.82,21.41-47.82,47.82,21.41,47.82,47.82,47.82,47.82-21.41,47.82-47.82Z"></path>
      <path d="M478.55,339.38v44.14h-36.79c-24.39,0-44.14,19.76-44.14,44.14v88.28h-44.14v-88.28c0-48.76,39.54-88.28,88.28-88.28h36.79Z"></path>
      <path d="M631.57,423.93c0-24.38-19.76-44.14-44.14-44.14s-44.14,19.76-44.14,44.14v91.96h-44.14v-91.96c0-48.76,39.52-88.28,88.28-88.28s88.28,39.52,88.28,88.28v91.96h-44.14v-91.96Z"></path>
      <path d="M880.4,427.66v88.28h-44.14v-9.72c-13.93,8.5-30.3,13.4-47.82,13.4-50.79,0-91.96-41.17-91.96-91.96s41.17-91.96,91.96-91.96,91.96,41.17,91.96,91.96ZM836.26,427.66c0-26.41-21.41-47.82-47.82-47.82s-47.82,21.41-47.82,47.82,21.41,47.82,47.82,47.82,47.82-21.41,47.82-47.82Z"></path>
    </g>
  </g>
</svg>